<?xml version="1.0" encoding="utf-8"?>
<!-- Generator: Adobe Illustrator 19.2.1, SVG Export Plug-In . SVG Version: 6.00 Build 0)  -->
<svg version="1.1" id="Layer_1" xmlns="http://www.w3.org/2000/svg" xmlns:xlink="http://www.w3.org/1999/xlink" x="0px" y="0px"
	 viewBox="0 0 500 41.5" style="enable-background:new 0 0 500 41.5;" xml:space="preserve">
<style type="text/css">
	.st0{stroke:#000000;stroke-width:0.5;stroke-miterlimit:10;}
</style>
<g>
	<path d="M87.5,22.3H96v-3.9h-8.6v-4h9.8v-3.9H83.5v20h14v-3.9h-9.8L87.5,22.3L87.5,22.3z M110.7,26.6c-3.2,0-5.3-2.9-5.3-6.3v-0.1
		c0-3.4,2.2-6.3,5.3-6.3c1.8,0,3.3,0.8,4.7,2.2l2.5-3.2c-1.6-1.9-3.8-3-7.3-3c-5.5,0-9.6,4.6-9.6,10.4l0,0c0,5.8,4,10.3,9.3,10.3
		c3.5,0,5.5-1.4,7.5-3.5l-2.5-2.9C114.1,25.7,112.7,26.6,110.7,26.6z M128.5,10.3l-7.7,20.1h4l1.6-4.5h7.6l1.6,4.5h4.1L132,10.3
		C132.4,10.3,128.5,10.3,128.5,10.3z M128.1,22l2.4-6.5l2.4,6.5H128.1z M75.3,19.9c1.3-0.8,2.4-2,2.4-4.2l0,0c0-3.2-2.3-5.2-6.1-5.2
		h-8.4v20h8.6c4.1,0,6.7-1.7,6.7-5.4l0,0C78.7,22.1,77.4,20.9,75.3,19.9z M67.2,14.2h4c1.6,0,2.7,0.7,2.7,2l0,0
		c0,1.6-1.1,2.1-2.9,2.1h-3.8L67.2,14.2L67.2,14.2z M74.7,24.4c0,1.6-1.1,2.1-2.9,2.1h-4.7v-4.3h4.6C73.9,22.1,74.7,23,74.7,24.4
		L74.7,24.4z M46.5,17.1L46.5,17.1c0-4.1-2.7-6.6-6.9-6.6h-7.8v20h4V24h2.8l4,6.3h4.7l-4.5-7.1C45,22.3,46.5,20.3,46.5,17.1z
		 M42.4,17.4c0,1.7-1.1,2.9-3.1,2.9h-3.6v-5.8h3.6C41.2,14.4,42.4,15.3,42.4,17.4C42.4,17.2,42.4,17.4,42.4,17.4z M52.2,38l4.1,0.1
		V2.6h-4.1V38L52.2,38L52.2,38z M12.9,14.5h5.5v15.9h4V14.5h5.5v-4h-15V14.5z M153.4,30.3h4v-7.8h8.6v-4h-8.6v-4.2h9.8v-4h-14
		L153.4,30.3C153.3,30.3,153.4,30.3,153.4,30.3z M171.4,30.3h4v-20h-4V30.3z M184.9,10.3h-4.1v20H194v-3.9h-9.1L184.9,10.3
		L184.9,10.3z M206.1,18.7l-4.8-8.5h-4.2v20h4v-13l5.1,8.5h0.1l5.2-8.5v13.1h4v-20h-4.4L206.1,18.7z M229.9,30.3h4v-7.8h8.7v-4H234
		v-4.2h9.8v-4h-14L229.9,30.3L229.9,30.3z M251.8,22.1h8.6v-3.9h-8.6v-4h9.8v-3.9h-13.8v20h14v-4H252L251.8,22.1L251.8,22.1z
		 M273.7,18.3c-3.2-0.9-4-1.3-4-2.6l0,0c0-0.9,0.8-1.7,2.3-1.7s3.2,0.7,4.7,2l2-3.3c-1.8-1.7-4.1-2.6-6.7-2.6c-3.8,0-6.3,2.4-6.3,6
		l0,0c0,4,2.4,5.1,6.1,6.2c3.1,0.8,3.8,1.4,3.8,2.6l0,0c0,1.2-1.1,1.9-2.7,1.9c-2,0-3.9-0.9-5.4-2.5l-2.4,3c2.2,2.1,5,3.2,7.7,3.2
		c4,0,6.6-2.2,6.6-6.2l0,0C279.5,20.9,277.4,19.3,273.7,18.3z M282.4,14.4h5.5v15.9h4V14.4h5.5v-4h-15.1L282.4,14.4L282.4,14.4z
		 M301.4,30.3h4v-20h-4V30.3z M323,10.3l-4.8,14.1l-4.8-14.1h-4.3l7.4,20.1h3.5l7.4-20.1C327.2,10.3,323,10.3,323,10.3z M334,10.1
		l-7.7,20.1h4l1.6-4.5h7.6l1.6,4.5h4.1l-7.7-20.1C337.7,10.1,334,10.1,334,10.1z M333.5,22l2.4-6.5l2.4,6.5H333.5z M353.1,10.3h-4
		v20h13.2v-3.9h-9.1L353.1,10.3L353.1,10.3z M382.5,38.1h2.4V2.6h-2.4V38.1z"/>
</g>
<g>
	<path d="M367.2,28.4c0,0.9-0.8,1.6-2,1.6c-1.1,0-2-0.6-2-1.6c0-0.9,0.9-1.6,2-1.6C366.3,26.8,367.2,27.5,367.2,28.4z M363.8,28.4
		c0,0.6,0.6,1.3,1.5,1.3c0.8,0,1.5-0.6,1.5-1.3c0-0.6-0.6-1.3-1.5-1.3S363.8,27.8,363.8,28.4z M365,29.2h-0.5v-1.6
		c0.2,0,0.5-0.1,0.7-0.1c0.4,0,0.6,0.1,0.6,0.2c0.1,0.1,0.2,0.2,0.2,0.4c0,0.2-0.2,0.3-0.4,0.4l0,0c0.2,0.1,0.3,0.2,0.4,0.4
		c0.1,0.2,0.1,0.3,0.2,0.4h-0.6c-0.1-0.1-0.1-0.2-0.2-0.4c0-0.2-0.2-0.2-0.4-0.2h0V29.2L365,29.2z M365,28.3h0.2
		c0.3,0,0.5-0.1,0.5-0.2c0-0.2-0.1-0.2-0.4-0.2c-0.1,0-0.2,0-0.3,0L365,28.3L365,28.3z"/>
</g>
<g>
	<g>
		<path class="st0" d="M430.2,8.2c-2.3-1.3-4.9-2-7.9-2c-2.9,0-5.7,0.8-8,2.1c-0.7,0.4-1.1,0.7-1.1,1.1c0,1.2,3,2.5,8.4,2.5
			c5.3,0,9.5-1.4,9.5-2.8C431,8.8,430.8,8.5,430.2,8.2 M432.5,9.8c0.1,0.1,0.1,0.2,0.1,0.3c0,1.6-5.2,4.4-13.6,4.4
			c-6.1,0-7.3-2.1-7.3-3.4c0-0.5,0.2-1,0.7-1.5l0,0c-0.9,0.6-1.6,1.3-2.1,2.1c-0.3,0.3-0.5,0.7-0.5,0.9c0,2.8,7.6,4.8,14.5,4.8
			c7.5,0,10.8-2.3,10.8-4.2c0-0.7-0.3-1.1-1.1-1.9C433.5,10.6,433,10.1,432.5,9.8L432.5,9.8 M408.4,14.3c-0.5,0.8-1,2.2-1.1,2.9
			c-0.1,0.3,0,0.5,0.1,0.7c1,1.8,5.7,4.8,16.9,4.8c6.8,0,12.1-1.5,12.9-4.4c0.2-0.5,0.2-1.1,0-1.8c-0.2-0.8-0.7-1.8-1-2.5l0,0
			c0.2,3.7-11.1,6.1-16.7,6.1c-6.1,0-11.2-2.2-11.2-5.1C408.3,14.8,408.3,14.5,408.4,14.3C408.4,14.2,408.4,14.2,408.4,14.3
			 M419.2,26c-7.9,0-11.6-3.4-12.2-5.7l0,0c0,0.8,0.1,1.8,0.2,2.5c0.1,0.3,0.4,0.8,0.8,1.2c1.9,1.8,6.6,4.4,14.9,4.4
			c11.2,0,13.9-3.4,14.3-4.6c0.4-0.8,0.6-2.3,0.6-3.5c0-0.3,0-0.5,0-0.8l0,0C437.1,22.4,427.5,26,419.2,26 M423.3,32.4
			c3.8,0,8-1,10.4-2.8c0.7-0.5,1.3-1.2,1.9-2.1c0.4-0.5,0.7-1.2,1-1.8l0,0c-2.3,3.2-9,5.1-15.9,5.1c-4.8,0-10.2-1.4-12.2-4.2l0,0
			C410.3,30.2,416.1,32.4,423.3,32.4 M412.8,31.6c2.6,1.9,5.9,3,9.5,3c3.9,0,7.5-1.3,10.2-3.5l0,0c-1.2,0.8-4.7,2.4-10.2,2.4
			C417.6,33.5,414.6,32.5,412.8,31.6C412.8,31.5,412.8,31.5,412.8,31.6 M466.1,28.5c0.3,0,0.5-0.2,0.5-0.5V14.9h4.8
			c0.3,0,0.5-0.2,0.5-0.5v-1.8c0-0.3-0.2-0.5-0.5-0.5h-12.9c-0.3,0-0.5,0.2-0.5,0.5v1.8c0,0.3,0.2,0.5,0.5,0.5h4.8V28
			c0,0.3,0.2,0.5,0.5,0.5H466.1L466.1,28.5z M488.2,27.9c0.3,0.3,0.1,0.6-0.3,0.6h-2.8c-0.4,0-0.6-0.1-0.9-0.3l-1.6-1.7
			c-1.1,1.4-2.7,2.4-5.3,2.4c-3.2,0-5.8-1.8-5.8-4.9c0-2.4,1.4-3.6,3.4-4.7c-1-1.1-1.5-2.2-1.5-3.2c0-2.5,1.9-4.3,4.8-4.3
			s4.8,1.6,4.8,4c0,2-1.6,3.2-3.2,4l2.5,2.5l1.4-2.3c0.2-0.3,0.4-0.4,0.8-0.4h2.1c0.4,0,0.6,0.2,0.4,0.6l-2.5,3.9L488.2,27.9
			 M478.4,14.4c-1.1,0-1.8,0.7-1.8,1.6c0,0.7,0.4,1.3,1.3,2.2c1.6-0.8,2.2-1.4,2.2-2.2C480,15.1,479.4,14.4,478.4,14.4 M477.3,26.3
			c1.4,0,2.4-0.6,3.1-1.7l-3.6-3.5c-1.4,0.7-2.3,1.4-2.3,2.8C474.6,25.3,475.8,26.3,477.3,26.3 M460.1,28c0.1,0.3-0.1,0.5-0.4,0.5
			h-2.3c-0.4,0-0.6-0.1-0.7-0.4l-1.3-3.5h-7.2l-1.3,3.5c-0.1,0.3-0.3,0.4-0.7,0.4h-2.1c-0.3,0-0.5-0.3-0.4-0.5l6-15.3
			c0.1-0.3,0.3-0.4,0.7-0.4h3c0.4,0,0.6,0.1,0.7,0.4L460.1,28 M454.5,21.9l-2.6-6.7l-2.6,6.7H454.5L454.5,21.9z M491.7,28.5
			c-0.3,0-0.5-0.2-0.5-0.5V14.9h-4.8c-0.3,0-0.5-0.2-0.5-0.5v-1.8c0-0.3,0.2-0.5,0.5-0.5h12.9c0.3,0,0.5,0.2,0.5,0.5v1.8
			c0,0.3-0.2,0.5-0.5,0.5h-4.8V28c0,0.3-0.2,0.5-0.5,0.5H491.7L491.7,28.5z"/>
	</g>
</g>
</svg>
