<?xml version="1.0" encoding="utf-8"?>
<!-- Generator: Adobe Illustrator 22.1.0, SVG Export Plug-In . SVG Version: 6.00 Build 0)  -->
<svg version="1.1"
	 id="svg4200" inkscape:version="0.91 r13725" sodipodi:docname="contacts_sprite.svg" xmlns:cc="http://creativecommons.org/ns#" xmlns:dc="http://purl.org/dc/elements/1.1/" xmlns:inkscape="http://www.inkscape.org/namespaces/inkscape" xmlns:ns="&#38;ns_ai;" xmlns:rdf="http://www.w3.org/1999/02/22-rdf-syntax-ns#" xmlns:sodipodi="http://sodipodi.sourceforge.net/DTD/sodipodi-0.dtd" xmlns:svg="http://www.w3.org/2000/svg"
	 xmlns="http://www.w3.org/2000/svg" xmlns:xlink="http://www.w3.org/1999/xlink" x="0px" y="0px" viewBox="0 0 86 30.3"
	 style="enable-background:new 0 0 86 30.3;" xml:space="preserve">
<style type="text/css">
	.st0{fill:#FFFFFF;}
</style>
<path class="st0" d="M81.3,11.5c0.2-0.1,0.4,0,0.4,0.2v8.5c0,1.1-1,2-2.2,2H60.4c-1.2,0-2.2-0.9-2.2-2v-8.5c0-0.2,0.3-0.3,0.4-0.2
	c1,0.7,2.4,1.6,7.1,4.7c1,0.6,2.6,2,4.2,2c1.6,0,3.3-1.4,4.2-2C78.9,13.1,80.3,12.2,81.3,11.5z M70,16.8c1.1,0,2.6-1.2,3.4-1.7
	c6.1-4,6.6-4.4,8-5.4c0.3-0.2,0.4-0.5,0.4-0.8V8.2c0-1.1-1-2-2.2-2H60.4c-1.2,0-2.2,0.9-2.2,2V9c0,0.3,0.2,0.6,0.4,0.8
	c1.4,1,1.9,1.3,8,5.4C67.3,15.6,68.9,16.9,70,16.8L70,16.8z"/>
<path class="st0" d="M51.3,6L47.2,5c-0.4-0.1-0.9,0.1-1.1,0.5l-1.9,4.4c-0.2,0.4-0.1,0.8,0.3,1.1l2.4,1.9c-1.4,3-3.9,5.5-6.9,6.9
	L38,17.5c-0.3-0.3-0.7-0.4-1.1-0.3l-4.4,1.9c-0.4,0.2-0.6,0.6-0.5,1.1l0.9,4.1c0.1,0.4,0.5,0.7,0.9,0.7C43.9,25,52,16.9,52,6.9
	C52,6.4,51.7,6,51.3,6z"/>
<sodipodi:namedview  bordercolor="#666666" borderopacity="1" fit-margin-bottom="5" fit-margin-left="5" fit-margin-right="5" fit-margin-top="5" gridtolerance="10" guidetolerance="10" id="namedview4204" inkscape:current-layer="svg4200" inkscape:cx="42.192266" inkscape:cy="1.021476" inkscape:pageopacity="0" inkscape:pageshadow="2" inkscape:window-height="782" inkscape:window-maximized="0" inkscape:window-width="1446" inkscape:window-x="0" inkscape:window-y="0" inkscape:zoom="4.5302013" objecttolerance="10" pagecolor="#ffffff" showgrid="false">
	</sodipodi:namedview>
<path id="path4202" inkscape:connector-curvature="0" class="st0" d="M24.2,17.1c0.1-0.6,0.2-1.3,0.2-2c0-5.1-4.2-9.3-9.3-9.3
	c-0.7,0-1.3,0.1-2,0.2C12.3,5.4,11.2,5,10.1,5C7.3,5,5,7.3,5,10.1c0,1.2,0.4,2.2,1.1,3.1c-0.1,0.6-0.2,1.3-0.2,2
	c0,5.1,4.2,9.3,9.3,9.3c0.7,0,1.3-0.1,2-0.2c0.9,0.7,1.9,1.1,3.1,1.1c2.8,0,5.1-2.3,5.1-5.1C25.3,19,24.9,18,24.2,17.1z M15.4,21.3
	c-3,0-5.5-1.3-5.5-2.9c0-0.7,0.4-1.4,1.3-1.4c1.4,0,1.5,2,4,2c1.2,0,1.9-0.5,1.9-1.2c0-0.8-0.7-1-1.9-1.3c-2.8-0.7-5.3-1-5.3-3.9
	c0-2.7,2.7-3.7,4.9-3.7c2.5,0,5,1,5,2.5c0,0.8-0.5,1.4-1.4,1.4c-1.3,0-1.3-1.5-3.4-1.5c-1.2,0-1.9,0.3-1.9,1c0,0.9,0.9,1,3.1,1.5
	c1.9,0.4,4.1,1.2,4.1,3.5C20.5,20,17.9,21.3,15.4,21.3z"/>
</svg>
