<?xml version="1.0" encoding="utf-8"?>
<!-- Generator: Adobe Illustrator 22.1.0, SVG Export Plug-In . SVG Version: 6.00 Build 0)  -->
<svg version="1.1" id="Layer_1" xmlns="http://www.w3.org/2000/svg" xmlns:xlink="http://www.w3.org/1999/xlink" x="0px" y="0px"
	 viewBox="0 0 200 70.3" style="enable-background:new 0 0 200 70.3;" xml:space="preserve">
<style type="text/css">
	.st0{fill:#414141;}
	.st1{fill:#FFFFFF;}
</style>
<g>
	<path class="st0" d="M2.4,25.7V19H0.2v-2.7h2.2v-2.1c0-2.3,1.4-3.5,3.4-3.5c1,0,1.8,0.1,2.1,0.1v2.4H6.5c-1.1,0-1.3,0.5-1.3,1.3
		v1.8h2.5L7.4,19H5.3v6.7"/>
</g>
<g>
	<path class="st1" d="M3.2,62.9v-6.7H1v-2.7h2.2v-2.1c0-2.3,1.4-3.5,3.4-3.5c1,0,1.8,0.1,2.1,0.1v2.4H7.3C6.2,50.4,6,51,6,51.7v1.8
		h2.5l-0.3,2.7H6.1v6.7"/>
</g>
<path class="st0" d="M39.4,14.7c0,0.1,0,0.3,0,0.4c0,4.1-3.1,8.9-8.9,8.9c-1.8,0-3.4-0.5-4.8-1.4c0.3,0,0.5,0,0.8,0
	c1.5,0,2.8-0.5,3.9-1.3c-1.4,0-2.5-0.9-2.9-2.2c0.2,0,0.4,0,0.6,0c0.3,0,0.6,0,0.8-0.1c-1.4-0.3-2.5-1.5-2.5-3.1l0,0
	c0.4,0.2,0.9,0.4,1.4,0.4c-0.8-0.6-1.4-1.5-1.4-2.6c0-0.6,0.2-1.1,0.4-1.6c1.5,1.9,3.8,3.1,6.4,3.3c0-0.2-0.1-0.5-0.1-0.7
	c0-1.7,1.4-3.1,3.1-3.1c0.9,0,1.7,0.4,2.3,1c0.7-0.1,1.4-0.4,2-0.8c-0.2,0.7-0.7,1.3-1.4,1.7c0.6-0.1,1.2-0.2,1.8-0.5
	C40.6,13.7,40,14.3,39.4,14.7L39.4,14.7z"/>
<path class="st1" d="M38.6,51.1c0,0.1,0,0.3,0,0.4c0,4.1-3.1,8.9-8.9,8.9c-1.8,0-3.4-0.5-4.8-1.4c0.3,0,0.5,0,0.8,0
	c1.5,0,2.8-0.5,3.9-1.3c-1.4,0-2.5-0.9-2.9-2.2c0.2,0,0.4,0,0.6,0c0.3,0,0.6,0,0.8-0.1c-1.4-0.3-2.5-1.5-2.5-3.1l0,0
	c0.4,0.2,0.9,0.4,1.4,0.4c-0.8-0.6-1.4-1.5-1.4-2.6c0-0.6,0.2-1.1,0.4-1.6c1.5,1.9,3.8,3.1,6.4,3.3c0-0.2-0.1-0.5-0.1-0.7
	c0-1.7,1.4-3.1,3.1-3.1c0.9,0,1.7,0.4,2.3,1c0.7-0.1,1.4-0.4,2-0.8c-0.2,0.7-0.7,1.3-1.4,1.7c0.6-0.1,1.2-0.2,1.8-0.5
	C39.8,50.1,39.2,50.6,38.6,51.1L38.6,51.1z"/>
<g>
	<path class="st0" d="M72.7,13.8c-0.2-0.7-0.7-1.3-1.4-1.4C70,12,64.9,12,64.9,12s-5.1,0-6.3,0.3c-0.7,0.2-1.2,0.7-1.4,1.4
		c-0.3,1.3-0.3,3.9-0.3,3.9s0,2.7,0.3,3.9c0.2,0.7,0.7,1.2,1.4,1.4c1.3,0.3,6.3,0.3,6.3,0.3s5.1,0,6.3-0.3c0.7-0.2,1.2-0.7,1.4-1.4
		c0.3-1.3,0.3-3.9,0.3-3.9S73,15.1,72.7,13.8z M63.2,20.1v-4.8l4.2,2.4L63.2,20.1L63.2,20.1z"/>
</g>
<g>
	<path class="st1" d="M72.9,50.4c-0.2-0.7-0.7-1.3-1.4-1.4c-1.3-0.3-6.3-0.3-6.3-0.3s-5.1,0-6.3,0.3c-0.7,0.2-1.2,0.7-1.4,1.4
		C57,51.7,57,54.3,57,54.3s0,2.7,0.3,3.9c0.2,0.7,0.7,1.2,1.4,1.4C60,60,65.1,60,65.1,60s5.1,0,6.3-0.3c0.7-0.2,1.2-0.7,1.4-1.4
		c0.3-1.3,0.3-3.9,0.3-3.9S73.2,51.7,72.9,50.4z M63.4,56.7v-4.8l4.2,2.4L63.4,56.7L63.4,56.7z"/>
</g>
<path class="st0" d="M101,15c-0.1,1.4-1,3.2-2.9,5.6c-1.9,2.5-3.5,3.7-4.9,3.7c-0.8,0-1.5-0.8-2.1-2.3c-1.1-4.1-1.6-6.4-2.5-6.4
	c-0.1,0-0.5,0.2-1.1,0.7l-0.7-0.9c1.6-1.4,3.2-3,4.1-3.1c1.1-0.1,1.8,0.6,2,2.2c0.9,5.7,1.3,6.6,2.9,4c0.6-0.9,0.9-1.6,0.9-2.1
	c0.2-1.4-1.1-1.3-2-1c0.7-2.3,2-3.4,4-3.3C100.4,12.2,101.1,13.1,101,15L101,15z"/>
<path class="st1" d="M101,50.8c-0.1,1.4-1,3.2-2.9,5.6c-1.9,2.5-3.5,3.7-4.9,3.7c-0.8,0-1.5-0.8-2.1-2.3c-1.1-4.1-1.6-6.4-2.5-6.4
	c-0.1,0-0.5,0.2-1.1,0.7l-0.7-0.9c1.6-1.4,3.2-3,4.1-3.1c1.1-0.1,1.8,0.6,2,2.2c0.9,5.7,1.3,6.6,2.9,4c0.6-0.9,0.9-1.6,0.9-2.1
	c0.2-1.4-1.1-1.3-2-1c0.7-2.3,2-3.4,4-3.3C100.4,48,101.1,49,101,50.8L101,50.8z"/>
<path class="st0" d="M124,14.8c-2,0-3.5,1.5-3.5,3.5s1.5,3.5,3.5,3.5c2,0,3.5-1.5,3.5-3.5S126,14.8,124,14.8z M124,20.6
	c-1.2,0-2.3-1-2.3-2.3s1-2.3,2.3-2.3s2.3,1,2.3,2.3S125.3,20.6,124,20.6L124,20.6z M128.5,14.6c0,0.4-0.3,0.8-0.8,0.8
	s-0.8-0.3-0.8-0.8c0-0.4,0.3-0.8,0.8-0.8S128.5,14.2,128.5,14.6z M130.9,15.5c0-1.1-0.3-2.1-1.1-2.8c-0.8-0.8-1.7-1.1-2.8-1.1
	c-1.1-0.1-4.5-0.1-5.7,0c-1.1,0-2.1,0.3-2.8,1.1c-0.8,0.8-1.1,1.7-1.1,2.8c-0.1,1.1-0.1,4.5,0,5.7c0,1.1,0.3,2.1,1.1,2.8
	c0.8,0.8,1.7,1.1,2.8,1.1c1.1,0.1,4.5,0.1,5.7,0c1.1,0,2.1-0.3,2.8-1.1c0.8-0.8,1.1-1.7,1.1-2.8C130.9,19.9,130.9,16.6,130.9,15.5
	L130.9,15.5z M129.3,22.3c-0.2,0.5-0.7,1.1-1.3,1.3c-0.9,0.3-3.1,0.3-4,0.3s-3.2,0.1-4-0.3c-0.5-0.2-1.1-0.7-1.3-1.3
	c-0.3-0.9-0.3-3.1-0.3-4s-0.1-3.2,0.3-4c0.2-0.5,0.7-1.1,1.3-1.3c0.9-0.3,3.1-0.3,4-0.3s3.2-0.1,4,0.3c0.5,0.2,1.1,0.7,1.3,1.3
	c0.3,0.9,0.3,3.1,0.3,4S129.7,21.4,129.3,22.3z"/>
<path class="st0" d="M160.2,18.5c0,4-2.7,6.9-6.8,6.9c-3.8,0-7-3.2-7-7s3.2-7,7-7c1.9,0,3.5,0.7,4.7,1.9l-1.9,1.9
	c-2.5-2.4-7.1-0.5-7.1,3.4c0,2.4,2,4.4,4.4,4.4c2.7,0,3.8-2,3.9-3.1h-3.9v-2.4h6.6C160.2,17.7,160.2,18.1,160.2,18.5L160.2,18.5z"/>
<path class="st1" d="M160.2,54.2c0,4-2.7,6.9-6.8,6.9c-3.8,0-7-3.2-7-7s3.2-7,7-7c1.9,0,3.5,0.7,4.7,1.9l-1.9,1.9
	c-2.5-2.4-7.1-0.5-7.1,3.4c0,2.4,2,4.4,4.4,4.4c2.7,0,3.8-2,3.9-3.1h-3.9v-2.4h6.6C160.2,53.5,160.2,53.8,160.2,54.2L160.2,54.2z"/>
<path class="st1" d="M124,50.3c-2,0-3.5,1.5-3.5,3.5s1.5,3.5,3.5,3.5c2,0,3.5-1.5,3.5-3.5S126,50.3,124,50.3z M124,56.1
	c-1.2,0-2.3-1-2.3-2.3c0-1.3,1-2.3,2.3-2.3s2.3,1,2.3,2.3C126.3,55.1,125.3,56.1,124,56.1L124,56.1z M128.5,50.1
	c0,0.4-0.3,0.8-0.8,0.8s-0.8-0.3-0.8-0.8s0.3-0.8,0.8-0.8S128.5,49.6,128.5,50.1z M130.9,51c0-1.1-0.3-2.1-1.1-2.8S128,47,126.9,47
	c-1.1-0.1-4.5-0.1-5.7,0c-1.1,0-2.1,0.3-2.8,1.1c-0.8,0.8-1.1,1.7-1.1,2.8c-0.1,1.1-0.1,4.5,0,5.7c0,1.1,0.3,2.1,1.1,2.8
	c0.8,0.8,1.7,1.1,2.8,1.1c1.1,0.1,4.5,0.1,5.7,0c1.1,0,2.1-0.3,2.8-1.1c0.8-0.8,1.1-1.7,1.1-2.8C130.9,55.4,130.9,52,130.9,51
	L130.9,51z M129.3,57.8c-0.2,0.5-0.7,1.1-1.3,1.3c-0.9,0.3-3.1,0.3-4,0.3s-3.2,0.1-4-0.3c-0.5-0.2-1.1-0.7-1.3-1.3
	c-0.3-0.9-0.3-3.1-0.3-4c0-1-0.1-3.2,0.3-4c0.2-0.5,0.7-1.1,1.3-1.3c0.9-0.3,3.1-0.3,4-0.3s3.2-0.1,4,0.3c0.5,0.2,1.1,0.7,1.3,1.3
	c0.3,0.9,0.3,3.1,0.3,4S129.7,56.8,129.3,57.8z"/>
</svg>
