<?xml version="1.0" encoding="utf-8"?>
<!-- Generator: Adobe Illustrator 22.1.0, SVG Export Plug-In . SVG Version: 6.00 Build 0)  -->
<svg version="1.1" id="Layer_1" xmlns="http://www.w3.org/2000/svg" xmlns:xlink="http://www.w3.org/1999/xlink" x="0px" y="0px"
	 viewBox="0 0 484 30" style="enable-background:new 0 0 484 30;" xml:space="preserve">
<style type="text/css">
	.st0{fill:none;}
	.st1{enable-background:new    ;}
	.st2{fill:#414141;}
	.st3{fill:#FFFFFF;}
</style>
<rect x="-2" y="7.9" class="st0" width="227" height="56.1"/>
<g class="st1">
	<path class="st2" d="M2.5,10.1v2.6h7.2v2.2H2.5v5.3H0.1V7.9h12.8v2.2H2.5z"/>
	<path class="st2" d="M29.7,14c0,1.9-0.7,3.2-2.1,4.6c-0.7,0.8-2.6,1.6-4.7,1.6h-8.4V7.9h8C26.9,7.9,29.7,10.5,29.7,14z M27.1,14.1
		c0-2.4-1.7-4-4.4-4H17V18h6.1C25.5,18,27.1,16.4,27.1,14.1z"/>
	<path class="st2" d="M51.8,11.8c0,2.5-1.7,3.9-4.7,3.9H40v4.5h-2.4V7.9h9.9C50.1,7.9,51.8,9.4,51.8,11.8z M49.3,11.8
		c0-1.2-0.7-1.8-2.3-1.8h-7v3.4h7.2C48.6,13.5,49.3,12.9,49.3,11.8z"/>
	<path class="st2" d="M65.3,20.2l-3.2-4.5H56v4.5h-2.4V7.9h9.9c2.6,0,4.3,1.5,4.3,3.9c0,2-1.1,3.3-3.1,3.7l3.3,4.7H65.3z M65.3,11.8
		c0-1.2-0.7-1.8-2.3-1.8h-7v3.4h7.2C64.6,13.5,65.3,12.9,65.3,11.8z"/>
	<path class="st2" d="M83.4,18.9c-1.4,1-3.3,1.6-5.5,1.6s-4.1-0.6-5.5-1.6c-1.7-1.3-2.6-2.9-2.6-4.9c0-2,0.9-3.6,2.6-4.9
		c1.4-1,3.4-1.7,5.5-1.7s4.1,0.6,5.5,1.7C85.1,10.4,86,12,86,14C86,16,85.1,17.7,83.4,18.9z M77.9,9.7c-3.3,0-5.6,1.9-5.6,4.4
		c0,2.6,2.2,4.4,5.6,4.4c3.4,0,5.6-1.8,5.6-4.4C83.5,11.5,81.2,9.7,77.9,9.7z"/>
	<path class="st2" d="M103.9,14c0,1.9-0.7,3.2-2.1,4.6c-0.7,0.8-2.6,1.6-4.7,1.6h-8.4V7.9h8C101,7.9,103.9,10.5,103.9,14z
		 M101.3,14.1c0-2.4-1.7-4-4.4-4h-5.7V18h6.1C99.6,18,101.3,16.4,101.3,14.1z"/>
	<path class="st2" d="M113.4,20.6c-4.4,0-7.2-1.9-7.2-4.4V7.9h2.4v7.8c0,1.8,1.6,2.7,4.8,2.7c3.1,0,4.7-1,4.7-2.7V7.9h2.4v8.3
		C120.6,18.7,117.8,20.6,113.4,20.6z"/>
	<path class="st2" d="M136.4,11.6c-1.2-1.3-2.9-2-5-2c-3.5,0-5.7,1.8-5.7,4.3c0,2.6,2.2,4.4,5.8,4.4c2.1,0,3.7-0.6,5-2l2.1,1.1
		c-1.9,2.2-4.1,3.1-7.1,3.1c-5,0-8.2-2.7-8.2-6.5c0-2,0.9-3.6,2.6-4.9c1.4-1,3.4-1.6,5.5-1.6c3.1,0,5.5,1.1,7.4,3.4L136.4,11.6z"/>
	<path class="st2" d="M147,10.1v10.1h-2.4V10.1h-5.9V7.9h14.2v2.2H147z"/>
	<path class="st2" d="M154.5,20.2V7.9h2.4v12.3H154.5z"/>
	<path class="st2" d="M173.3,18.9c-1.4,1-3.3,1.6-5.5,1.6s-4.1-0.6-5.5-1.6c-1.7-1.3-2.6-2.9-2.6-4.9c0-2,0.9-3.6,2.6-4.9
		c1.4-1,3.4-1.7,5.5-1.7s4.1,0.6,5.5,1.7c1.7,1.3,2.6,2.9,2.6,4.9C175.9,16,175,17.7,173.3,18.9z M167.8,9.7c-3.3,0-5.6,1.9-5.6,4.4
		c0,2.6,2.2,4.4,5.6,4.4c3.4,0,5.6-1.8,5.6-4.4C173.4,11.5,171.1,9.7,167.8,9.7z"/>
	<path class="st2" d="M189.4,20.2L181,9.9v10.3h-2.4V7.9h3.6l8.4,10.3V7.9h2.4v12.3H189.4z"/>
	<path class="st2" d="M202.3,9.7c-2.7,0-4.1,0.5-4.1,1.5c0,1.3,2.2,1.1,5.7,1.5c3.9,0.4,5.7,1.3,5.7,3.7c0,2.6-2.4,4.1-6.9,4.1
		c-3.2,0-5.7-0.7-7.6-2.2l1.3-1.7c1.7,1.2,3.8,1.8,6.2,1.8c2.8,0,4.4-0.8,4.4-1.9c0-0.6-0.5-1.1-1.4-1.4c-1.3-0.4-3.2-0.3-5.6-0.5
		c-3-0.3-4.4-1.2-4.4-3.2c0-2.3,2.4-3.8,6.6-3.8c2.8,0,5,0.6,6.7,1.8l-1.5,1.6C205.9,10.1,204.2,9.7,202.3,9.7z"/>
</g>
<rect x="237" y="7.9" class="st0" width="227" height="56.1"/>
<g class="st1">
	<path class="st3" d="M241.5,10.1v2.6h7.2v2.2h-7.2v5.3h-2.4V7.9h12.8v2.2H241.5z"/>
	<path class="st3" d="M268.7,14c0,1.9-0.7,3.2-2.1,4.6c-0.7,0.8-2.6,1.6-4.7,1.6h-8.4V7.9h8C265.9,7.9,268.7,10.5,268.7,14z
		 M266.1,14.1c0-2.4-1.7-4-4.4-4H256V18h6.1C264.5,18,266.1,16.4,266.1,14.1z"/>
	<path class="st3" d="M290.8,11.8c0,2.5-1.7,3.9-4.7,3.9H279v4.5h-2.4V7.9h9.9C289.1,7.9,290.8,9.4,290.8,11.8z M288.3,11.8
		c0-1.2-0.7-1.8-2.3-1.8h-7v3.4h7.2C287.6,13.5,288.3,12.9,288.3,11.8z"/>
	<path class="st3" d="M304.3,20.2l-3.2-4.5H295v4.5h-2.4V7.9h9.9c2.6,0,4.3,1.5,4.3,3.9c0,2-1.1,3.3-3.1,3.7l3.3,4.7H304.3z
		 M304.3,11.8c0-1.2-0.7-1.8-2.3-1.8h-7v3.4h7.2C303.6,13.5,304.3,12.9,304.3,11.8z"/>
	<path class="st3" d="M322.4,18.9c-1.4,1-3.3,1.6-5.5,1.6s-4.1-0.6-5.5-1.6c-1.7-1.3-2.6-2.9-2.6-4.9c0-2,0.9-3.6,2.6-4.9
		c1.4-1,3.4-1.7,5.5-1.7s4.1,0.6,5.5,1.7c1.7,1.3,2.6,2.9,2.6,4.9C325,16,324.1,17.7,322.4,18.9z M316.9,9.7c-3.3,0-5.6,1.9-5.6,4.4
		c0,2.6,2.2,4.4,5.6,4.4c3.4,0,5.6-1.8,5.6-4.4C322.5,11.5,320.2,9.7,316.9,9.7z"/>
	<path class="st3" d="M342.9,14c0,1.9-0.7,3.2-2.1,4.6c-0.7,0.8-2.6,1.6-4.7,1.6h-8.4V7.9h8C340,7.9,342.9,10.5,342.9,14z
		 M340.3,14.1c0-2.4-1.7-4-4.4-4h-5.7V18h6.1C338.6,18,340.3,16.4,340.3,14.1z"/>
	<path class="st3" d="M352.4,20.6c-4.4,0-7.2-1.9-7.2-4.4V7.9h2.4v7.8c0,1.8,1.6,2.7,4.8,2.7c3.1,0,4.7-1,4.7-2.7V7.9h2.4v8.3
		C359.6,18.7,356.8,20.6,352.4,20.6z"/>
	<path class="st3" d="M375.4,11.6c-1.2-1.3-2.9-2-5-2c-3.5,0-5.7,1.8-5.7,4.3c0,2.6,2.2,4.4,5.8,4.4c2.1,0,3.7-0.6,5-2l2.1,1.1
		c-1.9,2.2-4.1,3.1-7.1,3.1c-5,0-8.2-2.7-8.2-6.5c0-2,0.9-3.6,2.6-4.9c1.4-1,3.4-1.6,5.5-1.6c3.1,0,5.5,1.1,7.4,3.4L375.4,11.6z"/>
	<path class="st3" d="M386,10.1v10.1h-2.4V10.1h-5.9V7.9h14.2v2.2H386z"/>
	<path class="st3" d="M393.5,20.2V7.9h2.4v12.3H393.5z"/>
	<path class="st3" d="M412.3,18.9c-1.4,1-3.3,1.6-5.5,1.6s-4.1-0.6-5.5-1.6c-1.7-1.3-2.6-2.9-2.6-4.9c0-2,0.9-3.6,2.6-4.9
		c1.4-1,3.4-1.7,5.5-1.7s4.1,0.6,5.5,1.7c1.7,1.3,2.6,2.9,2.6,4.9C414.9,16,414,17.7,412.3,18.9z M406.8,9.7c-3.3,0-5.6,1.9-5.6,4.4
		c0,2.6,2.2,4.4,5.6,4.4c3.4,0,5.6-1.8,5.6-4.4C412.4,11.5,410.1,9.7,406.8,9.7z"/>
	<path class="st3" d="M428.4,20.2L420,9.9v10.3h-2.4V7.9h3.6l8.4,10.3V7.9h2.4v12.3H428.4z"/>
	<path class="st3" d="M441.3,9.7c-2.7,0-4.1,0.5-4.1,1.5c0,1.3,2.2,1.1,5.7,1.5c3.9,0.4,5.7,1.3,5.7,3.7c0,2.6-2.4,4.1-6.9,4.1
		c-3.2,0-5.7-0.7-7.6-2.2l1.3-1.7c1.7,1.2,3.8,1.8,6.2,1.8c2.8,0,4.4-0.8,4.4-1.9c0-0.6-0.5-1.1-1.4-1.4c-1.3-0.4-3.2-0.3-5.6-0.5
		c-3-0.3-4.4-1.2-4.4-3.2c0-2.3,2.4-3.8,6.6-3.8c2.8,0,5,0.6,6.7,1.8l-1.5,1.6C444.9,10.1,443.2,9.7,441.3,9.7z"/>
</g>
</svg>
