<?xml version="1.0" encoding="utf-8"?>
<!-- Generator: Adobe Illustrator 22.1.0, SVG Export Plug-In . SVG Version: 6.00 Build 0)  -->
<svg version="1.1" id="Layer_1" xmlns="http://www.w3.org/2000/svg" xmlns:xlink="http://www.w3.org/1999/xlink" x="0px" y="0px"
	 viewBox="0 0 60 28" style="enable-background:new 0 0 60 28;" xml:space="preserve">
<style type="text/css">
	.st0{fill:#FFFFFF;}
	.st1{fill:#414141;}
</style>
<g id="Magnifying_Glass">
	<g>
		<rect x="48.4" y="15.4" transform="matrix(0.7071 -0.7071 0.7071 0.7071 2.2207 39.9)" class="st0" width="1.8" height="3.7"/>
		
			<rect x="52.3" y="17.1" transform="matrix(0.7071 -0.7071 0.7071 0.7071 0.2068 44.7607)" class="st0" width="3.7" height="10.1"/>
		<line class="st0" x1="51.9" y1="17.3" x2="49.3" y2="19.9"/>
	</g>
	<path class="st0" d="M48.6,3.7c-3.6-3.6-9.4-3.6-13,0c-3.6,3.6-3.6,9.4,0,13C39,20,44.4,20.2,48,17.3c0.2-0.2,0.5-0.4,0.7-0.6
		c0.2-0.2,0.4-0.4,0.6-0.7C52.2,12.4,52,7,48.6,3.7z M46.1,14.1c-2.2,2.2-5.6,2.2-7.8,0c-2.1-2.1-2.1-5.6,0-7.8
		c2.1-2.1,5.6-2.1,7.8,0C48.2,8.4,48.2,11.9,46.1,14.1z"/>
</g>
<g id="Magnifying_Glass_1_">
	<g>
		
			<rect x="16.4" y="15.4" transform="matrix(0.7071 -0.7071 0.7071 0.7071 -7.1519 17.2726)" class="st1" width="1.8" height="3.7"/>
		
			<rect x="20.3" y="17.1" transform="matrix(0.7071 -0.7071 0.7071 0.7071 -9.1655 22.1335)" class="st1" width="3.7" height="10.1"/>
		<line class="st1" x1="19.9" y1="17.3" x2="17.3" y2="19.9"/>
	</g>
	<path class="st1" d="M16.6,3.7c-3.6-3.6-9.4-3.6-13,0c-3.6,3.6-3.6,9.4,0,13C7,20,12.4,20.2,16,17.3c0.2-0.2,0.5-0.4,0.7-0.6
		c0.2-0.2,0.4-0.4,0.6-0.7C20.2,12.4,20,7,16.6,3.7z M14.1,14.1c-2.2,2.2-5.6,2.2-7.8,0c-2.1-2.1-2.1-5.6,0-7.8
		c2.1-2.1,5.6-2.1,7.8,0C16.2,8.4,16.2,11.9,14.1,14.1z"/>
</g>
</svg>
