<?xml version="1.0" encoding="utf-8"?>
<!-- Generator: Adobe Illustrator 22.1.0, SVG Export Plug-In . SVG Version: 6.00 Build 0)  -->
<svg version="1.1" id="Layer_1" xmlns="http://www.w3.org/2000/svg" xmlns:xlink="http://www.w3.org/1999/xlink" x="0px" y="0px"
	 viewBox="0 0 26 26" style="enable-background:new 0 0 26 26;" xml:space="preserve">
<style type="text/css">
	.st0{fill:#FFFFFF;}
</style>
<g id="Magnifying_Glass_1_">
	<g>
		
			<rect x="15.4" y="14.4" transform="matrix(0.7071 -0.7071 0.7071 0.7071 -6.7376 16.2726)" class="st0" width="1.8" height="3.7"/>
		
			<rect x="19.3" y="16.1" transform="matrix(0.7071 -0.7071 0.7071 0.7071 -8.7513 21.1335)" class="st0" width="3.7" height="10.1"/>
		<line class="st0" x1="18.9" y1="16.3" x2="16.3" y2="18.9"/>
	</g>
	<path class="st0" d="M15.6,2.7c-3.6-3.6-9.4-3.6-13,0c-3.6,3.6-3.6,9.4,0,13C6,19,11.4,19.2,15,16.3c0.2-0.2,0.5-0.4,0.7-0.6
		c0.2-0.2,0.4-0.4,0.6-0.7C19.2,11.4,19,6,15.6,2.7z M13.1,13.1c-2.2,2.2-5.6,2.2-7.8,0c-2.1-2.1-2.1-5.6,0-7.8
		c2.1-2.1,5.6-2.1,7.8,0C15.2,7.4,15.2,10.9,13.1,13.1z"/>
</g>
</svg>
