<?xml version="1.0" encoding="utf-8"?>
<!-- Generator: Adobe Illustrator 22.1.0, SVG Export Plug-In . SVG Version: 6.00 Build 0)  -->
<svg version="1.1" id="Layer_1" xmlns="http://www.w3.org/2000/svg" xmlns:xlink="http://www.w3.org/1999/xlink" x="0px" y="0px"
	 viewBox="0 0 209.5 13.2" style="enable-background:new 0 0 209.5 13.2;" xml:space="preserve">
<style type="text/css">
	.st0{enable-background:new    ;}
</style>
<g class="st0">
	<path d="M2.4,2.7v2.6h7.2v2.2H2.4v5.3H0V0.5h12.8v2.2H2.4z"/>
	<path d="M29.6,6.6c0,1.9-0.7,3.2-2.1,4.6c-0.7,0.8-2.6,1.6-4.7,1.6h-8.4V0.5h8C26.8,0.5,29.6,3.1,29.6,6.6z M27,6.7
		c0-2.4-1.7-4-4.4-4h-5.7v7.9H23C25.4,10.6,27,9,27,6.7z"/>
	<path d="M51.7,4.4c0,2.5-1.7,3.9-4.7,3.9h-7.1v4.5h-2.4V0.5h9.9C50,0.5,51.7,2,51.7,4.4z M49.2,4.4c0-1.2-0.7-1.8-2.3-1.8h-7V6h7.2
		C48.5,6.1,49.2,5.5,49.2,4.4z"/>
	<path d="M65.2,12.8L62,8.3h-6.1v4.5h-2.4V0.5h9.9c2.6,0,4.3,1.5,4.3,3.9c0,2-1.1,3.3-3.1,3.7l3.3,4.7H65.2z M65.2,4.4
		c0-1.2-0.7-1.8-2.3-1.8h-7V6h7.2C64.5,6.1,65.2,5.5,65.2,4.4z"/>
	<path d="M83.3,11.5c-1.4,1-3.3,1.6-5.5,1.6s-4.1-0.6-5.5-1.6c-1.7-1.3-2.6-2.9-2.6-4.9s0.9-3.6,2.6-4.9c1.4-1,3.4-1.7,5.5-1.7
		s4.1,0.6,5.5,1.7C85,3,85.9,4.6,85.9,6.6S85,10.3,83.3,11.5z M77.8,2.3c-3.3,0-5.6,1.9-5.6,4.4c0,2.6,2.2,4.4,5.6,4.4
		s5.6-1.8,5.6-4.4S81.1,2.3,77.8,2.3z"/>
	<path d="M103.8,6.6c0,1.9-0.7,3.2-2.1,4.6c-0.7,0.8-2.6,1.6-4.7,1.6h-8.4V0.5h8C100.9,0.5,103.8,3.1,103.8,6.6z M101.2,6.7
		c0-2.4-1.7-4-4.4-4h-5.7v7.9h6.1C99.5,10.6,101.2,9,101.2,6.7z"/>
	<path d="M113.3,13.2c-4.4,0-7.2-1.9-7.2-4.4V0.5h2.4v7.8c0,1.8,1.6,2.7,4.8,2.7c3.1,0,4.7-1,4.7-2.7V0.5h2.4v8.3
		C120.5,11.3,117.7,13.2,113.3,13.2z"/>
	<path d="M136.3,4.2c-1.2-1.3-2.9-2-5-2c-3.5,0-5.7,1.8-5.7,4.3c0,2.6,2.2,4.4,5.8,4.4c2.1,0,3.7-0.6,5-2l2.1,1.1
		c-1.9,2.2-4.1,3.1-7.1,3.1c-5,0-8.2-2.7-8.2-6.5c0-2,0.9-3.6,2.6-4.9c1.4-1,3.4-1.6,5.5-1.6c3.1,0,5.5,1.1,7.4,3.4L136.3,4.2z"/>
	<path d="M146.9,2.7v10.1h-2.4V2.7h-5.9V0.5h14.2v2.2H146.9z"/>
	<path d="M154.4,12.8V0.5h2.4v12.3H154.4z"/>
	<path d="M173.2,11.5c-1.4,1-3.3,1.6-5.5,1.6s-4.1-0.6-5.5-1.6c-1.7-1.3-2.6-2.9-2.6-4.9s0.9-3.6,2.6-4.9c1.4-1,3.4-1.7,5.5-1.7
		s4.1,0.6,5.5,1.7c1.7,1.3,2.6,2.9,2.6,4.9C175.8,8.6,174.9,10.3,173.2,11.5z M167.7,2.3c-3.3,0-5.6,1.9-5.6,4.4
		c0,2.6,2.2,4.4,5.6,4.4c3.4,0,5.6-1.8,5.6-4.4C173.3,4.1,171,2.3,167.7,2.3z"/>
	<path d="M189.3,12.8l-8.4-10.3v10.3h-2.4V0.5h3.6l8.4,10.3V0.5h2.4v12.3H189.3z"/>
	<path d="M202.2,2.3c-2.7,0-4.1,0.5-4.1,1.5c0,1.3,2.2,1.1,5.7,1.5c3.9,0.4,5.7,1.3,5.7,3.7c0,2.6-2.4,4.1-6.9,4.1
		c-3.2,0-5.7-0.7-7.6-2.2l1.3-1.7c1.7,1.2,3.8,1.8,6.2,1.8c2.8,0,4.4-0.8,4.4-1.9c0-0.6-0.5-1.1-1.4-1.4c-1.3-0.4-3.2-0.3-5.6-0.5
		c-3-0.3-4.4-1.2-4.4-3.2c0-2.3,2.4-3.8,6.6-3.8c2.8,0,5,0.6,6.7,1.8l-1.5,1.6C205.8,2.7,204.1,2.3,202.2,2.3z"/>
</g>
</svg>
